# xmcd
#
# Track frame offsets:
#	150
#	12854
#	32325
#	49961
#	70664
#	88377
#	108595
#	129441
#	148776
#	167979
#
# Disc length: 2430 seconds
#
# Revision: 1
# Processed by: cddbd v1.5.1PL2 Copyright (c) Steve Scherf et al.
# Submitted via: audiograbber 1.82.01
#
DISCID=89097c0a
DTITLE=Γιάννης Τσολακίδης - ΣΕ ΜΙΑ ΧΟΡΔΗ
DYEAR=1998
DGENRE=
TTITLE0=Μαρία Φωτίου - Σε μια χορδή
TTITLE1=Γιάννης Τσολακίδης - Χαρά μου εσύ
TTITLE2=’ννα Δαρδαμάνη - Παραμύθι
TTITLE3=Δημήτρης Μητροπάνος - Χαμένα Σαββατόβραδα
TTITLE4=Μαρία Φωτίου - Είναι λίγο πιο παράξενο
TTITLE5=Θωμάς Κοροβίνης - Κάνε κάτι
TTITLE6=’ννα Δαρδαμάνη - Χαϊδάρι
TTITLE7=Γιάννης Τσολακίδης - Όνειρο σκοπιάς
TTITLE8=Δημήτρης Ζερβουδάκης - ’τιτλο
TTITLE9=Γιάννης Τσολακίδης - Ρετρό
EXTD=
EXTT0=
EXTT1=
EXTT2=
EXTT3=
EXTT4=
EXTT5=
EXTT6=
EXTT7=
EXTT8=
EXTT9=
PLAYORDER=
